<svg id="visual" viewBox="0 0 960 200" width="960" height="200" xmlns="http://www.w3.org/2000/svg" xmlns:xlink="http://www.w3.org/1999/xlink" version="1.1"><path d="M0 103L40 108C80 113 160 123 240 123.5C320 124 400 115 480 110.8C560 106.7 640 107.3 720 108.2C800 109 880 110 920 110.5L960 111L960 201L920 201C880 201 800 201 720 201C640 201 560 201 480 201C400 201 320 201 240 201C160 201 80 201 40 201L0 201Z" fill="#eac362"></path><path d="M0 140L40 143.2C80 146.3 160 152.7 240 153.5C320 154.3 400 149.7 480 149.7C560 149.7 640 154.3 720 153.7C800 153 880 147 920 144L960 141L960 201L920 201C880 201 800 201 720 201C640 201 560 201 480 201C400 201 320 201 240 201C160 201 80 201 40 201L0 201Z" fill="#71d08c"></path></svg>