<svg id="visual" viewBox="0 0 960 540" width="960" height="540" xmlns="http://www.w3.org/2000/svg" xmlns:xlink="http://www.w3.org/1999/xlink" version="1.1"><path d="M0 280L40 293.7C80 307.3 160 334.7 240 336.2C320 337.7 400 313.3 480 301.8C560 290.3 640 291.7 720 293.8C800 296 880 299 920 300.5L960 302L960 541L920 541C880 541 800 541 720 541C640 541 560 541 480 541C400 541 320 541 240 541C160 541 80 541 40 541L0 541Z" fill="#71d08c"></path><path d="M0 379L40 387.7C80 396.3 160 413.7 240 416.2C320 418.7 400 406.3 480 406.5C560 406.7 640 419.3 720 417.2C800 415 880 398 920 389.5L960 381L960 541L920 541C880 541 800 541 720 541C640 541 560 541 480 541C400 541 320 541 240 541C160 541 80 541 40 541L0 541Z" fill="#eac362"></path></svg>