<svg id="visual" viewBox="0 0 960 100" width="960" height="100" xmlns="http://www.w3.org/2000/svg" xmlns:xlink="http://www.w3.org/1999/xlink" version="1.1"><path d="M0 93L14.5 91.8C29 90.7 58 88.3 87.2 87C116.3 85.7 145.7 85.3 174.8 86.5C204 87.7 233 90.3 262 91C291 91.7 320 90.3 349 90.3C378 90.3 407 91.7 436.2 91.2C465.3 90.7 494.7 88.3 523.8 87.7C553 87 582 88 611 89.3C640 90.7 669 92.3 698 93C727 93.7 756 93.3 785.2 91.8C814.3 90.3 843.7 87.7 872.8 87.7C902 87.7 931 90.3 945.5 91.7L960 93L960 101L945.5 101C931 101 902 101 872.8 101C843.7 101 814.3 101 785.2 101C756 101 727 101 698 101C669 101 640 101 611 101C582 101 553 101 523.8 101C494.7 101 465.3 101 436.2 101C407 101 378 101 349 101C320 101 291 101 262 101C233 101 204 101 174.8 101C145.7 101 116.3 101 87.2 101C58 101 29 101 14.5 101L0 101Z" fill="#71d08c" stroke-linecap="round" stroke-linejoin="miter"></path></svg>