<svg id="visual" viewBox="0 0 950 540" width="950" height="540" xmlns="http://www.w3.org/2000/svg" xmlns:xlink="http://www.w3.org/1999/xlink" version="1.1"><path d="M0 406L17.7 411.8C35.3 417.7 70.7 429.3 105.8 424C141 418.7 176 396.3 211.2 389.5C246.3 382.7 281.7 391.3 316.8 402.3C352 413.3 387 426.7 422.2 430.3C457.3 434 492.7 428 527.8 418.7C563 409.3 598 396.7 633.2 394.2C668.3 391.7 703.7 399.3 738.8 398.3C774 397.3 809 387.7 844.2 387.2C879.3 386.7 914.7 395.3 932.3 399.7L950 404L950 541L932.3 541C914.7 541 879.3 541 844.2 541C809 541 774 541 738.8 541C703.7 541 668.3 541 633.2 541C598 541 563 541 527.8 541C492.7 541 457.3 541 422.2 541C387 541 352 541 316.8 541C281.7 541 246.3 541 211.2 541C176 541 141 541 105.8 541C70.7 541 35.3 541 17.7 541L0 541Z" fill="#000" stroke-linecap="round" stroke-linejoin="miter"></path></svg>